<?xml version="1.0" encoding="utf-8"?>
<!-- Generator: Adobe Illustrator 17.1.0, SVG Export Plug-In . SVG Version: 6.00 Build 0)  -->
<!DOCTYPE svg PUBLIC "-//W3C//DTD SVG 1.1//EN" "http://www.w3.org/Graphics/SVG/1.1/DTD/svg11.dtd">
<svg version="1.1" id="chart-1" xmlns="http://www.w3.org/2000/svg" xmlns:xlink="http://www.w3.org/1999/xlink" x="0px" y="0px"
	 viewBox="0 0 1010 1010" enable-background="new 0 0 1010 1010" xml:space="preserve">
<g id="chart-1-chart-1">
	<path id="chart-1-statics" fill-rule="evenodd" clip-rule="evenodd" fill="#323B5A" d="M680.875,0.1851H571.207v443.6831h109.668
		V0.1851L680.875,0.1851z M842.6113,128.0996c-36.5761,0-73.1308,0-109.6875,0c0,105.2695,0,210.478,0,315.7686
		c36.5567,0,73.1114,0,109.6875,0C842.6113,338.5776,842.6113,233.3691,842.6113,128.0996L842.6113,128.0996z M1004.3086,256.0137
		h-109.668v187.8545h109.668V256.0137L1004.3086,256.0137z M505.0205,505H1010c0,278.1035-226.835,505-504.9795,505
		C226.8862,1010,0,783.1035,0,505C0,226.835,226.8862,0,505.0205,0V505L505.0205,505z"/>
</g>
</svg>
